<svg
        xmlns="http://www.w3.org/2000/svg" width="1149.254" height="441.757" viewBox="0 0 302.75 116.881">
    <defs>
        <clipPath id="a">
            <path d="M-884.173-377.684h81.816v86.35h-81.816zm8.999 9.253v55.325h63.21v-55.325z" stroke-width=".265"/>
        </clipPath>
        <clipPath id="b">
            <path d="M-4.298-3.468h81.816v86.35H-4.298zM6.804 6.91a2 2 0 00-2 2v52.273a2 2 0 002 2h59.364a2 2 0 002-2V8.91a2 2 0 00-2-2z" fill="#0ff" stroke-width=".264"/>
        </clipPath>
        <clipPath id="c">
            <path d="M71.171-3.468h81.816v86.332H71.171zM82.409 6.91a2 2 0 00-2 2v52.273a2 2 0 002 2h59.363a2 2 0 002-2V8.91a2 2 0 00-2-2z" fill="#0ff" stroke-width=".265"/>
        </clipPath>
        <clipPath id="d">
            <path d="M146.6-3.468h81.815v86.332H146.6zM157.567 6.91a2 2 0 00-2 2v52.273a2 2 0 002 2h59.363a2 2 0 002-2V8.91a2 2 0 00-2-2z" fill="#0ff" stroke-width=".263"/>
        </clipPath>
        <clipPath id="e">
            <path d="M223.07-3.468h81.816v86.332H223.07zM234.06 6.91a2 2 0 00-2 2v52.273a2 2 0 002 2h59.11a2 2 0 002-2V8.91a2 2 0 00-2-2z" fill="#fc0" stroke-width=".275"/>
        </clipPath>
    </defs>
    <g style="line-height:1.25;-inkscape-font-specification:'Roboto Condensed, ';white-space:pre;shape-inside:url(#a)">
        <path id="title" d="M5.242 102.246v14.14H.702V80.269h11.51q5.035 0 7.913 3.027 2.877 3.001 2.877 8.012 0 5.209-2.753 8.036-2.729 2.803-7.715 2.902zm0-3.894h6.97q3.026 0 4.638-1.81 1.613-1.811 1.613-5.185 0-3.25-1.662-5.209-1.662-1.96-4.564-1.96H5.242zm34.082-4.688q-.918-.174-1.985-.174-3.373 0-4.713 3.696v19.2h-4.39v-26.84h4.266l.075 2.729q1.76-3.225 4.985-3.225 1.042 0 1.737.348zm13.493 23.217q-5.01 0-7.69-2.976-2.678-3.002-2.728-8.781v-3.25q0-6.002 2.605-9.4 2.63-3.424 7.317-3.424 4.713 0 7.045 3.002 2.331 3.001 2.381 9.351v2.877H46.765v.62q0 4.317 1.612 6.276 1.637 1.96 4.688 1.96 1.935 0 3.399-.72 1.488-.744 2.778-2.331l2.282 2.778q-2.853 4.018-8.707 4.018zm-.496-24.06q-2.728 0-4.043 1.885-1.315 1.86-1.488 5.804h10.567v-.595q-.174-3.82-1.39-5.457-1.19-1.637-3.646-1.637zm21.977 16.892l5.085-20.167h4.465l-7.962 26.84h-3.275l-8.061-26.84h4.465zm18.852 6.672h-4.39V89.546h4.39zm.347-33.958q0 1.117-.62 1.86-.62.745-1.885.745-1.24 0-1.86-.744-.62-.744-.62-1.86 0-1.117.62-1.886.62-.769 1.86-.769 1.24 0 1.86.794.645.769.645 1.86zm19.596 27.088q0-1.415-1.067-2.432t-4.118-2.38q-3.547-1.464-5.01-2.506-1.439-1.042-2.158-2.357-.72-1.34-.72-3.175 0-3.274 2.382-5.432 2.406-2.183 6.127-2.183 3.919 0 6.3 2.282t2.381 5.854h-4.365q0-1.81-1.216-3.076-1.215-1.29-3.1-1.29-1.935 0-3.051 1.018-1.092.992-1.092 2.679 0 1.339.794 2.158.819.818 3.894 2.158 4.887 1.91 6.648 3.745 1.761 1.81 1.761 4.614 0 3.497-2.406 5.606-2.406 2.083-6.45 2.083-4.191 0-6.796-2.406-2.604-2.406-2.604-6.102h4.415q.074 2.233 1.364 3.498 1.29 1.265 3.622 1.265 2.183 0 3.324-.968 1.14-.992 1.14-2.654zm23.143 0q0-1.415-1.067-2.432t-4.118-2.38q-3.547-1.464-5.01-2.506-1.439-1.042-2.158-2.357-.72-1.34-.72-3.175 0-3.274 2.382-5.432 2.406-2.183 6.126-2.183 3.92 0 6.3 2.282 2.382 2.282 2.382 5.854h-4.366q0-1.81-1.215-3.076-1.215-1.29-3.1-1.29-1.935 0-3.052 1.018-1.091.992-1.091 2.679 0 1.339.794 2.158.818.818 3.894 2.158 4.887 1.91 6.648 3.745 1.76 1.81 1.76 4.614 0 3.497-2.405 5.606-2.406 2.083-6.45 2.083-4.191 0-6.796-2.406-2.604-2.406-2.604-6.102h4.415q.074 2.233 1.364 3.498 1.29 1.265 3.622 1.265 2.182 0 3.323-.968 1.141-.992 1.141-2.654zm9.177-7.79q0-5.853 2.828-9.252 2.852-3.423 7.516-3.423 4.663 0 7.49 3.324 2.853 3.324 2.928 9.054v2.828q0 5.829-2.828 9.227-2.828 3.398-7.54 3.398-4.664 0-7.492-3.299-2.803-3.299-2.902-8.93zm4.39 2.53q0 4.143 1.613 6.524 1.637 2.357 4.39 2.357 5.805 0 5.978-8.384v-3.027q0-4.117-1.637-6.498-1.637-2.406-4.39-2.406-2.704 0-4.341 2.406-1.612 2.38-1.612 6.474zm33.115-10.591q-.918-.174-1.985-.174-3.373 0-4.712 3.696v19.2h-4.39v-26.84h4.265l.074 2.729q1.761-3.225 4.986-3.225 1.041 0 1.736.348z" style="-inkscape-font-specification:'Roboto Condensed, '" aria-label="Previssor" font-weight="400" font-size="50.8" font-family="'Roboto Condensed'" fill="#2C74B3"/>
    </g>
    <path id="pc1" d="M3.702 1.532h65.816a3 3 45 013 3v70.35a3 3 135 01-3 3H3.702a3 3 45 01-3-3V4.533a3 3 135 013-3z" clip-path="url(#b)" fill="#dbdee3"/>
    <path id="pc2" d="M79.171 1.532h65.816a3 3 45 013 3v70.332a3 3 135 01-3 3H79.171a3 3 45 01-3-3V4.532a3 3 135 013-3z" clip-path="url(#c)" fill="#2C74B3"/>
    <path id="pc3" d="M154.6 1.532h65.815a3 3 45 013 3v70.332a3 3 135 01-3 3H154.6a3 3 45 01-3-3V4.532a3 3 135 013-3z" clip-path="url(#d)" fill="#dbdee3"/>
    <path id="pc4" d="M231.07 1.532h65.816a3 3 45 013 3v70.332a3 3 135 01-3 3H231.07a3 3 45 01-3-3V4.532a3 3 135 013-3z" clip-path="url(#e)" fill="#EB455F"/>
</svg>
